<?xml version="1.0" ?><svg id="Layer_1" style="enable-background:new 0 0 128 128;" version="1.1" viewBox="0 0 128 128" xml:space="preserve" xmlns="http://www.w3.org/2000/svg" xmlns:xlink="http://www.w3.org/1999/xlink"><style type="text/css">
	.st0{fill:#FFFFFF;}
	.st1{fill:#E4E4E7;}
	.st2{fill:none;stroke:#444B54;stroke-width:6;stroke-linecap:round;stroke-linejoin:round;stroke-miterlimit:10;}
	.st3{fill:#AFAFBC;}
	.st4{fill:#EAD063;}
	.st5{fill:#242426;}
	.st6{fill:#F9DED4;}
	.st7{fill:#D8AC9E;}
	.st8{fill:#FFD0FF;}
	.st9{fill:#6575C1;}
	.st10{fill:#786F74;}
	.st11{fill:#9B9BA5;}
	.st12{fill:#FFD2EA;}
	.st13{fill:#B78BA4;}
	.st14{fill:#444B54;}
	.st15{fill:#5D5D8C;}
	.st16{fill:none;stroke:#FFFFFF;stroke-width:6;stroke-linecap:round;stroke-linejoin:round;stroke-miterlimit:10;}
</style><g><path class="st1" d="M82,48.8C82,22.3,68.6,4.2,64,4.2S46,22.3,46,48.8V110h36V48.8z"/></g><g><path class="st0" d="M64,4.2c-4.6,0-18,18.2-18,44.6V110h18V4.2z"/></g><g><polygon class="st0" points="22,124 46,75 46,110 26,124  "/></g><g><polygon class="st1" points="106,124 82,75 82,110 102,124  "/></g><g><rect class="st8" height="16" width="20" x="54" y="45.9"/></g><g><rect class="st9" height="8" width="10" x="54" y="45.9"/></g><path class="st14" d="M108.7,122.7L85,74.3V48.8c0-11.9-2.7-23.8-7.6-33.6C74,8.4,68.7,1.2,64,1.2c-7.2,0-21,20.1-21,47.6  c0,1.7,1.3,3,3,3s3-1.3,3-3C49,24.3,60.8,8.6,64,7.2c3.2,1.4,15,17.1,15,41.6V75c0,0.5,0.1,0.9,0.3,1.3l21,42.8L83,107v-8  c0-1.7-1.3-3-3-3s-3,1.3-3,3v8H51v-7c0-1.7-1.3-3-3-3s-3,1.3-3,3v7l-17.3,12.1l21-42.8c0.7-1.5,0.1-3.3-1.4-4  c-1.5-0.7-3.3-0.1-4,1.4l-24,49c-0.5,0.9-0.4,2,0.1,2.9C20,126.5,21,127,22,127h4c0.6,0,1.2-0.2,1.7-0.5L46.9,113H52v3  c0,1.7,1.3,3,3,3s3-1.3,3-3v-3h3v3c0,1.7,1.3,3,3,3s3-1.3,3-3v-3h3v3c0,1.7,1.3,3,3,3s3-1.3,3-3v-3h5.1l19.2,13.5  c0.5,0.4,1.1,0.5,1.7,0.5h4c1,0,2-0.5,2.5-1.4C109.1,124.7,109.1,123.6,108.7,122.7z"/></svg>